<?xml version="1.0" encoding="utf-8" standalone="no"?>
<!DOCTYPE svg PUBLIC "-//W3C//DTD SVG 1.1//EN"
  "http://www.w3.org/Graphics/SVG/1.1/DTD/svg11.dtd">
<svg xmlns:xlink="http://www.w3.org/1999/xlink" width="720pt" height="504pt" viewBox="0 0 720 504" xmlns="http://www.w3.org/2000/svg" version="1.1">
 <metadata>
  <rdf:RDF xmlns:dc="http://purl.org/dc/elements/1.1/" xmlns:cc="http://creativecommons.org/ns#" xmlns:rdf="http://www.w3.org/1999/02/22-rdf-syntax-ns#">
   <cc:Work>
    <dc:type rdf:resource="http://purl.org/dc/dcmitype/StillImage"/>
    <dc:date>2022-05-17T16:21:20.920429</dc:date>
    <dc:format>image/svg+xml</dc:format>
    <dc:creator>
     <cc:Agent>
      <dc:title>Matplotlib v3.5.2, https://matplotlib.org/</dc:title>
     </cc:Agent>
    </dc:creator>
   </cc:Work>
  </rdf:RDF>
 </metadata>
 <defs>
  <style type="text/css">*{stroke-linejoin: round; stroke-linecap: butt}</style>
 </defs>
 <g id="figure_1">
  <g id="patch_1">
   <path d="M 0 504 
L 720 504 
L 720 0 
L 0 0 
z
" style="fill: #ffffff"/>
  </g>
  <g id="axes_1">
   <g id="patch_2">
    <path d="M 90 448.56 
L 648 448.56 
L 648 60.48 
L 90 60.48 
z
" style="fill: #ffffff"/>
   </g>
   <g id="matplotlib.axis_1">
    <g id="xtick_1">
     <g id="line2d_1">
      <path d="M 90 448.56 
L 90 60.48 
" clip-path="url(#pc6f7da6446)" style="fill: none; stroke: #cccccc; stroke-width: 0.8; stroke-linecap: square"/>
     </g>
     <g id="line2d_2">
      <defs>
       <path id="m1300257e00" d="M 0 0 
L 0 3.5 
" style="stroke: #000000; stroke-width: 0.8"/>
      </defs>
      <g>
       <use xlink:href="#m1300257e00" x="90" y="448.56" style="stroke: #000000; stroke-width: 0.8"/>
      </g>
     </g>
     <g id="text_1">
      <!-- 0 -->
      <g transform="translate(86.81875 463.158437)scale(0.1 -0.1)">
       <defs>
        <path id="DejaVuSans-30" d="M 2034 4250 
Q 1547 4250 1301 3770 
Q 1056 3291 1056 2328 
Q 1056 1369 1301 889 
Q 1547 409 2034 409 
Q 2525 409 2770 889 
Q 3016 1369 3016 2328 
Q 3016 3291 2770 3770 
Q 2525 4250 2034 4250 
z
M 2034 4750 
Q 2819 4750 3233 4129 
Q 3647 3509 3647 2328 
Q 3647 1150 3233 529 
Q 2819 -91 2034 -91 
Q 1250 -91 836 529 
Q 422 1150 422 2328 
Q 422 3509 836 4129 
Q 1250 4750 2034 4750 
z
" transform="scale(0.015625)"/>
       </defs>
       <use xlink:href="#DejaVuSans-30"/>
      </g>
     </g>
    </g>
    <g id="xtick_2">
     <g id="line2d_3">
      <path d="M 208.435189 448.56 
L 208.435189 60.48 
" clip-path="url(#pc6f7da6446)" style="fill: none; stroke: #cccccc; stroke-width: 0.8; stroke-linecap: square"/>
     </g>
     <g id="line2d_4">
      <g>
       <use xlink:href="#m1300257e00" x="208.435189" y="448.56" style="stroke: #000000; stroke-width: 0.8"/>
      </g>
     </g>
     <g id="text_2">
      <!-- 20 -->
      <g transform="translate(202.072689 463.158437)scale(0.1 -0.1)">
       <defs>
        <path id="DejaVuSans-32" d="M 1228 531 
L 3431 531 
L 3431 0 
L 469 0 
L 469 531 
Q 828 903 1448 1529 
Q 2069 2156 2228 2338 
Q 2531 2678 2651 2914 
Q 2772 3150 2772 3378 
Q 2772 3750 2511 3984 
Q 2250 4219 1831 4219 
Q 1534 4219 1204 4116 
Q 875 4013 500 3803 
L 500 4441 
Q 881 4594 1212 4672 
Q 1544 4750 1819 4750 
Q 2544 4750 2975 4387 
Q 3406 4025 3406 3419 
Q 3406 3131 3298 2873 
Q 3191 2616 2906 2266 
Q 2828 2175 2409 1742 
Q 1991 1309 1228 531 
z
" transform="scale(0.015625)"/>
       </defs>
       <use xlink:href="#DejaVuSans-32"/>
       <use xlink:href="#DejaVuSans-30" x="63.623047"/>
      </g>
     </g>
    </g>
    <g id="xtick_3">
     <g id="line2d_5">
      <path d="M 326.870379 448.56 
L 326.870379 60.48 
" clip-path="url(#pc6f7da6446)" style="fill: none; stroke: #cccccc; stroke-width: 0.8; stroke-linecap: square"/>
     </g>
     <g id="line2d_6">
      <g>
       <use xlink:href="#m1300257e00" x="326.870379" y="448.56" style="stroke: #000000; stroke-width: 0.8"/>
      </g>
     </g>
     <g id="text_3">
      <!-- 40 -->
      <g transform="translate(320.507879 463.158437)scale(0.1 -0.1)">
       <defs>
        <path id="DejaVuSans-34" d="M 2419 4116 
L 825 1625 
L 2419 1625 
L 2419 4116 
z
M 2253 4666 
L 3047 4666 
L 3047 1625 
L 3713 1625 
L 3713 1100 
L 3047 1100 
L 3047 0 
L 2419 0 
L 2419 1100 
L 313 1100 
L 313 1709 
L 2253 4666 
z
" transform="scale(0.015625)"/>
       </defs>
       <use xlink:href="#DejaVuSans-34"/>
       <use xlink:href="#DejaVuSans-30" x="63.623047"/>
      </g>
     </g>
    </g>
    <g id="xtick_4">
     <g id="line2d_7">
      <path d="M 445.305568 448.56 
L 445.305568 60.48 
" clip-path="url(#pc6f7da6446)" style="fill: none; stroke: #cccccc; stroke-width: 0.8; stroke-linecap: square"/>
     </g>
     <g id="line2d_8">
      <g>
       <use xlink:href="#m1300257e00" x="445.305568" y="448.56" style="stroke: #000000; stroke-width: 0.8"/>
      </g>
     </g>
     <g id="text_4">
      <!-- 60 -->
      <g transform="translate(438.943068 463.158437)scale(0.1 -0.1)">
       <defs>
        <path id="DejaVuSans-36" d="M 2113 2584 
Q 1688 2584 1439 2293 
Q 1191 2003 1191 1497 
Q 1191 994 1439 701 
Q 1688 409 2113 409 
Q 2538 409 2786 701 
Q 3034 994 3034 1497 
Q 3034 2003 2786 2293 
Q 2538 2584 2113 2584 
z
M 3366 4563 
L 3366 3988 
Q 3128 4100 2886 4159 
Q 2644 4219 2406 4219 
Q 1781 4219 1451 3797 
Q 1122 3375 1075 2522 
Q 1259 2794 1537 2939 
Q 1816 3084 2150 3084 
Q 2853 3084 3261 2657 
Q 3669 2231 3669 1497 
Q 3669 778 3244 343 
Q 2819 -91 2113 -91 
Q 1303 -91 875 529 
Q 447 1150 447 2328 
Q 447 3434 972 4092 
Q 1497 4750 2381 4750 
Q 2619 4750 2861 4703 
Q 3103 4656 3366 4563 
z
" transform="scale(0.015625)"/>
       </defs>
       <use xlink:href="#DejaVuSans-36"/>
       <use xlink:href="#DejaVuSans-30" x="63.623047"/>
      </g>
     </g>
    </g>
    <g id="xtick_5">
     <g id="line2d_9">
      <path d="M 563.740757 448.56 
L 563.740757 60.48 
" clip-path="url(#pc6f7da6446)" style="fill: none; stroke: #cccccc; stroke-width: 0.8; stroke-linecap: square"/>
     </g>
     <g id="line2d_10">
      <g>
       <use xlink:href="#m1300257e00" x="563.740757" y="448.56" style="stroke: #000000; stroke-width: 0.8"/>
      </g>
     </g>
     <g id="text_5">
      <!-- 80 -->
      <g transform="translate(557.378257 463.158437)scale(0.1 -0.1)">
       <defs>
        <path id="DejaVuSans-38" d="M 2034 2216 
Q 1584 2216 1326 1975 
Q 1069 1734 1069 1313 
Q 1069 891 1326 650 
Q 1584 409 2034 409 
Q 2484 409 2743 651 
Q 3003 894 3003 1313 
Q 3003 1734 2745 1975 
Q 2488 2216 2034 2216 
z
M 1403 2484 
Q 997 2584 770 2862 
Q 544 3141 544 3541 
Q 544 4100 942 4425 
Q 1341 4750 2034 4750 
Q 2731 4750 3128 4425 
Q 3525 4100 3525 3541 
Q 3525 3141 3298 2862 
Q 3072 2584 2669 2484 
Q 3125 2378 3379 2068 
Q 3634 1759 3634 1313 
Q 3634 634 3220 271 
Q 2806 -91 2034 -91 
Q 1263 -91 848 271 
Q 434 634 434 1313 
Q 434 1759 690 2068 
Q 947 2378 1403 2484 
z
M 1172 3481 
Q 1172 3119 1398 2916 
Q 1625 2713 2034 2713 
Q 2441 2713 2670 2916 
Q 2900 3119 2900 3481 
Q 2900 3844 2670 4047 
Q 2441 4250 2034 4250 
Q 1625 4250 1398 4047 
Q 1172 3844 1172 3481 
z
" transform="scale(0.015625)"/>
       </defs>
       <use xlink:href="#DejaVuSans-38"/>
       <use xlink:href="#DejaVuSans-30" x="63.623047"/>
      </g>
     </g>
    </g>
    <g id="xtick_6">
     <g id="line2d_11">
      <path d="M 119.608797 448.56 
L 119.608797 60.48 
" clip-path="url(#pc6f7da6446)" style="fill: none; stroke-dasharray: 0.8,1.32; stroke-dashoffset: 0; stroke: #e6e6e6; stroke-width: 0.8"/>
     </g>
     <g id="line2d_12">
      <defs>
       <path id="md97b07dec6" d="M 0 0 
L 0 2 
" style="stroke: #000000; stroke-width: 0.6"/>
      </defs>
      <g>
       <use xlink:href="#md97b07dec6" x="119.608797" y="448.56" style="stroke: #000000; stroke-width: 0.6"/>
      </g>
     </g>
    </g>
    <g id="xtick_7">
     <g id="line2d_13">
      <path d="M 149.217595 448.56 
L 149.217595 60.48 
" clip-path="url(#pc6f7da6446)" style="fill: none; stroke-dasharray: 0.8,1.32; stroke-dashoffset: 0; stroke: #e6e6e6; stroke-width: 0.8"/>
     </g>
     <g id="line2d_14">
      <g>
       <use xlink:href="#md97b07dec6" x="149.217595" y="448.56" style="stroke: #000000; stroke-width: 0.6"/>
      </g>
     </g>
    </g>
    <g id="xtick_8">
     <g id="line2d_15">
      <path d="M 178.826392 448.56 
L 178.826392 60.48 
" clip-path="url(#pc6f7da6446)" style="fill: none; stroke-dasharray: 0.8,1.32; stroke-dashoffset: 0; stroke: #e6e6e6; stroke-width: 0.8"/>
     </g>
     <g id="line2d_16">
      <g>
       <use xlink:href="#md97b07dec6" x="178.826392" y="448.56" style="stroke: #000000; stroke-width: 0.6"/>
      </g>
     </g>
    </g>
    <g id="xtick_9">
     <g id="line2d_17">
      <path d="M 238.043987 448.56 
L 238.043987 60.48 
" clip-path="url(#pc6f7da6446)" style="fill: none; stroke-dasharray: 0.8,1.32; stroke-dashoffset: 0; stroke: #e6e6e6; stroke-width: 0.8"/>
     </g>
     <g id="line2d_18">
      <g>
       <use xlink:href="#md97b07dec6" x="238.043987" y="448.56" style="stroke: #000000; stroke-width: 0.6"/>
      </g>
     </g>
    </g>
    <g id="xtick_10">
     <g id="line2d_19">
      <path d="M 267.652784 448.56 
L 267.652784 60.48 
" clip-path="url(#pc6f7da6446)" style="fill: none; stroke-dasharray: 0.8,1.32; stroke-dashoffset: 0; stroke: #e6e6e6; stroke-width: 0.8"/>
     </g>
     <g id="line2d_20">
      <g>
       <use xlink:href="#md97b07dec6" x="267.652784" y="448.56" style="stroke: #000000; stroke-width: 0.6"/>
      </g>
     </g>
    </g>
    <g id="xtick_11">
     <g id="line2d_21">
      <path d="M 297.261581 448.56 
L 297.261581 60.48 
" clip-path="url(#pc6f7da6446)" style="fill: none; stroke-dasharray: 0.8,1.32; stroke-dashoffset: 0; stroke: #e6e6e6; stroke-width: 0.8"/>
     </g>
     <g id="line2d_22">
      <g>
       <use xlink:href="#md97b07dec6" x="297.261581" y="448.56" style="stroke: #000000; stroke-width: 0.6"/>
      </g>
     </g>
    </g>
    <g id="xtick_12">
     <g id="line2d_23">
      <path d="M 356.479176 448.56 
L 356.479176 60.48 
" clip-path="url(#pc6f7da6446)" style="fill: none; stroke-dasharray: 0.8,1.32; stroke-dashoffset: 0; stroke: #e6e6e6; stroke-width: 0.8"/>
     </g>
     <g id="line2d_24">
      <g>
       <use xlink:href="#md97b07dec6" x="356.479176" y="448.56" style="stroke: #000000; stroke-width: 0.6"/>
      </g>
     </g>
    </g>
    <g id="xtick_13">
     <g id="line2d_25">
      <path d="M 386.087973 448.56 
L 386.087973 60.48 
" clip-path="url(#pc6f7da6446)" style="fill: none; stroke-dasharray: 0.8,1.32; stroke-dashoffset: 0; stroke: #e6e6e6; stroke-width: 0.8"/>
     </g>
     <g id="line2d_26">
      <g>
       <use xlink:href="#md97b07dec6" x="386.087973" y="448.56" style="stroke: #000000; stroke-width: 0.6"/>
      </g>
     </g>
    </g>
    <g id="xtick_14">
     <g id="line2d_27">
      <path d="M 415.696771 448.56 
L 415.696771 60.48 
" clip-path="url(#pc6f7da6446)" style="fill: none; stroke-dasharray: 0.8,1.32; stroke-dashoffset: 0; stroke: #e6e6e6; stroke-width: 0.8"/>
     </g>
     <g id="line2d_28">
      <g>
       <use xlink:href="#md97b07dec6" x="415.696771" y="448.56" style="stroke: #000000; stroke-width: 0.6"/>
      </g>
     </g>
    </g>
    <g id="xtick_15">
     <g id="line2d_29">
      <path d="M 474.914365 448.56 
L 474.914365 60.48 
" clip-path="url(#pc6f7da6446)" style="fill: none; stroke-dasharray: 0.8,1.32; stroke-dashoffset: 0; stroke: #e6e6e6; stroke-width: 0.8"/>
     </g>
     <g id="line2d_30">
      <g>
       <use xlink:href="#md97b07dec6" x="474.914365" y="448.56" style="stroke: #000000; stroke-width: 0.6"/>
      </g>
     </g>
    </g>
    <g id="xtick_16">
     <g id="line2d_31">
      <path d="M 504.523163 448.56 
L 504.523163 60.48 
" clip-path="url(#pc6f7da6446)" style="fill: none; stroke-dasharray: 0.8,1.32; stroke-dashoffset: 0; stroke: #e6e6e6; stroke-width: 0.8"/>
     </g>
     <g id="line2d_32">
      <g>
       <use xlink:href="#md97b07dec6" x="504.523163" y="448.56" style="stroke: #000000; stroke-width: 0.6"/>
      </g>
     </g>
    </g>
    <g id="xtick_17">
     <g id="line2d_33">
      <path d="M 534.13196 448.56 
L 534.13196 60.48 
" clip-path="url(#pc6f7da6446)" style="fill: none; stroke-dasharray: 0.8,1.32; stroke-dashoffset: 0; stroke: #e6e6e6; stroke-width: 0.8"/>
     </g>
     <g id="line2d_34">
      <g>
       <use xlink:href="#md97b07dec6" x="534.13196" y="448.56" style="stroke: #000000; stroke-width: 0.6"/>
      </g>
     </g>
    </g>
    <g id="xtick_18">
     <g id="line2d_35">
      <path d="M 593.349555 448.56 
L 593.349555 60.48 
" clip-path="url(#pc6f7da6446)" style="fill: none; stroke-dasharray: 0.8,1.32; stroke-dashoffset: 0; stroke: #e6e6e6; stroke-width: 0.8"/>
     </g>
     <g id="line2d_36">
      <g>
       <use xlink:href="#md97b07dec6" x="593.349555" y="448.56" style="stroke: #000000; stroke-width: 0.6"/>
      </g>
     </g>
    </g>
    <g id="xtick_19">
     <g id="line2d_37">
      <path d="M 622.958352 448.56 
L 622.958352 60.48 
" clip-path="url(#pc6f7da6446)" style="fill: none; stroke-dasharray: 0.8,1.32; stroke-dashoffset: 0; stroke: #e6e6e6; stroke-width: 0.8"/>
     </g>
     <g id="line2d_38">
      <g>
       <use xlink:href="#md97b07dec6" x="622.958352" y="448.56" style="stroke: #000000; stroke-width: 0.6"/>
      </g>
     </g>
    </g>
    <g id="text_6">
     <!-- Время, с -->
     <g transform="translate(342.134063 478.35625)scale(0.12 -0.12)">
      <defs>
       <path id="DejaVuSans-412" d="M 1259 2228 
L 1259 519 
L 2272 519 
Q 2781 519 3026 730 
Q 3272 941 3272 1375 
Q 3272 1813 3026 2020 
Q 2781 2228 2272 2228 
L 1259 2228 
z
M 1259 4147 
L 1259 2741 
L 2194 2741 
Q 2656 2741 2882 2914 
Q 3109 3088 3109 3444 
Q 3109 3797 2882 3972 
Q 2656 4147 2194 4147 
L 1259 4147 
z
M 628 4666 
L 2241 4666 
Q 2963 4666 3353 4366 
Q 3744 4066 3744 3513 
Q 3744 3084 3544 2831 
Q 3344 2578 2956 2516 
Q 3422 2416 3680 2098 
Q 3938 1781 3938 1306 
Q 3938 681 3513 340 
Q 3088 0 2303 0 
L 628 0 
L 628 4666 
z
" transform="scale(0.015625)"/>
       <path id="DejaVuSans-440" d="M 1159 525 
L 1159 -1331 
L 581 -1331 
L 581 3500 
L 1159 3500 
L 1159 2969 
Q 1341 3281 1617 3432 
Q 1894 3584 2278 3584 
Q 2916 3584 3314 3078 
Q 3713 2572 3713 1747 
Q 3713 922 3314 415 
Q 2916 -91 2278 -91 
Q 1894 -91 1617 61 
Q 1341 213 1159 525 
z
M 3116 1747 
Q 3116 2381 2855 2742 
Q 2594 3103 2138 3103 
Q 1681 3103 1420 2742 
Q 1159 2381 1159 1747 
Q 1159 1113 1420 752 
Q 1681 391 2138 391 
Q 2594 391 2855 752 
Q 3116 1113 3116 1747 
z
" transform="scale(0.015625)"/>
       <path id="DejaVuSans-435" d="M 3597 1894 
L 3597 1613 
L 953 1613 
Q 991 1019 1311 708 
Q 1631 397 2203 397 
Q 2534 397 2845 478 
Q 3156 559 3463 722 
L 3463 178 
Q 3153 47 2828 -22 
Q 2503 -91 2169 -91 
Q 1331 -91 842 396 
Q 353 884 353 1716 
Q 353 2575 817 3079 
Q 1281 3584 2069 3584 
Q 2775 3584 3186 3129 
Q 3597 2675 3597 1894 
z
M 3022 2063 
Q 3016 2534 2758 2815 
Q 2500 3097 2075 3097 
Q 1594 3097 1305 2825 
Q 1016 2553 972 2059 
L 3022 2063 
z
" transform="scale(0.015625)"/>
       <path id="DejaVuSans-43c" d="M 581 3500 
L 1422 3500 
L 2416 1156 
L 3413 3500 
L 4247 3500 
L 4247 0 
L 3669 0 
L 3669 2950 
L 2703 672 
L 2128 672 
L 1159 2950 
L 1159 0 
L 581 0 
L 581 3500 
z
" transform="scale(0.015625)"/>
       <path id="DejaVuSans-44f" d="M 1181 2491 
Q 1181 2231 1381 2084 
Q 1581 1938 1953 1938 
L 2728 1938 
L 2728 3041 
L 1953 3041 
Q 1581 3041 1381 2897 
Q 1181 2753 1181 2491 
z
M 363 0 
L 1431 1534 
Q 1069 1616 828 1830 
Q 588 2044 588 2491 
Q 588 2997 923 3248 
Q 1259 3500 1938 3500 
L 3306 3500 
L 3306 0 
L 2728 0 
L 2728 1478 
L 2013 1478 
L 981 0 
L 363 0 
z
" transform="scale(0.015625)"/>
       <path id="DejaVuSans-2c" d="M 750 794 
L 1409 794 
L 1409 256 
L 897 -744 
L 494 -744 
L 750 256 
L 750 794 
z
" transform="scale(0.015625)"/>
       <path id="DejaVuSans-20" transform="scale(0.015625)"/>
       <path id="DejaVuSans-441" d="M 3122 3366 
L 3122 2828 
Q 2878 2963 2633 3030 
Q 2388 3097 2138 3097 
Q 1578 3097 1268 2742 
Q 959 2388 959 1747 
Q 959 1106 1268 751 
Q 1578 397 2138 397 
Q 2388 397 2633 464 
Q 2878 531 3122 666 
L 3122 134 
Q 2881 22 2623 -34 
Q 2366 -91 2075 -91 
Q 1284 -91 818 406 
Q 353 903 353 1747 
Q 353 2603 823 3093 
Q 1294 3584 2113 3584 
Q 2378 3584 2631 3529 
Q 2884 3475 3122 3366 
z
" transform="scale(0.015625)"/>
      </defs>
      <use xlink:href="#DejaVuSans-412"/>
      <use xlink:href="#DejaVuSans-440" x="68.603516"/>
      <use xlink:href="#DejaVuSans-435" x="132.080078"/>
      <use xlink:href="#DejaVuSans-43c" x="193.603516"/>
      <use xlink:href="#DejaVuSans-44f" x="269.042969"/>
      <use xlink:href="#DejaVuSans-2c" x="329.199219"/>
      <use xlink:href="#DejaVuSans-20" x="360.986328"/>
      <use xlink:href="#DejaVuSans-441" x="392.773438"/>
     </g>
    </g>
   </g>
   <g id="matplotlib.axis_2">
    <g id="ytick_1">
     <g id="line2d_39">
      <path d="M 90 448.56 
L 648 448.56 
" clip-path="url(#pc6f7da6446)" style="fill: none; stroke: #cccccc; stroke-width: 0.8; stroke-linecap: square"/>
     </g>
     <g id="line2d_40">
      <defs>
       <path id="m874ed99278" d="M 0 0 
L -3.5 0 
" style="stroke: #000000; stroke-width: 0.8"/>
      </defs>
      <g>
       <use xlink:href="#m874ed99278" x="90" y="448.56" style="stroke: #000000; stroke-width: 0.8"/>
      </g>
     </g>
     <g id="text_7">
      <!-- 0.0 -->
      <g transform="translate(67.096875 452.359219)scale(0.1 -0.1)">
       <defs>
        <path id="DejaVuSans-2e" d="M 684 794 
L 1344 794 
L 1344 0 
L 684 0 
L 684 794 
z
" transform="scale(0.015625)"/>
       </defs>
       <use xlink:href="#DejaVuSans-30"/>
       <use xlink:href="#DejaVuSans-2e" x="63.623047"/>
       <use xlink:href="#DejaVuSans-30" x="95.410156"/>
      </g>
     </g>
    </g>
    <g id="ytick_2">
     <g id="line2d_41">
      <path d="M 90 391.673456 
L 648 391.673456 
" clip-path="url(#pc6f7da6446)" style="fill: none; stroke: #cccccc; stroke-width: 0.8; stroke-linecap: square"/>
     </g>
     <g id="line2d_42">
      <g>
       <use xlink:href="#m874ed99278" x="90" y="391.673456" style="stroke: #000000; stroke-width: 0.8"/>
      </g>
     </g>
     <g id="text_8">
      <!-- 0.5 -->
      <g transform="translate(67.096875 395.472675)scale(0.1 -0.1)">
       <defs>
        <path id="DejaVuSans-35" d="M 691 4666 
L 3169 4666 
L 3169 4134 
L 1269 4134 
L 1269 2991 
Q 1406 3038 1543 3061 
Q 1681 3084 1819 3084 
Q 2600 3084 3056 2656 
Q 3513 2228 3513 1497 
Q 3513 744 3044 326 
Q 2575 -91 1722 -91 
Q 1428 -91 1123 -41 
Q 819 9 494 109 
L 494 744 
Q 775 591 1075 516 
Q 1375 441 1709 441 
Q 2250 441 2565 725 
Q 2881 1009 2881 1497 
Q 2881 1984 2565 2268 
Q 2250 2553 1709 2553 
Q 1456 2553 1204 2497 
Q 953 2441 691 2322 
L 691 4666 
z
" transform="scale(0.015625)"/>
       </defs>
       <use xlink:href="#DejaVuSans-30"/>
       <use xlink:href="#DejaVuSans-2e" x="63.623047"/>
       <use xlink:href="#DejaVuSans-35" x="95.410156"/>
      </g>
     </g>
    </g>
    <g id="ytick_3">
     <g id="line2d_43">
      <path d="M 90 334.786913 
L 648 334.786913 
" clip-path="url(#pc6f7da6446)" style="fill: none; stroke: #cccccc; stroke-width: 0.8; stroke-linecap: square"/>
     </g>
     <g id="line2d_44">
      <g>
       <use xlink:href="#m874ed99278" x="90" y="334.786913" style="stroke: #000000; stroke-width: 0.8"/>
      </g>
     </g>
     <g id="text_9">
      <!-- 1.0 -->
      <g transform="translate(67.096875 338.586132)scale(0.1 -0.1)">
       <defs>
        <path id="DejaVuSans-31" d="M 794 531 
L 1825 531 
L 1825 4091 
L 703 3866 
L 703 4441 
L 1819 4666 
L 2450 4666 
L 2450 531 
L 3481 531 
L 3481 0 
L 794 0 
L 794 531 
z
" transform="scale(0.015625)"/>
       </defs>
       <use xlink:href="#DejaVuSans-31"/>
       <use xlink:href="#DejaVuSans-2e" x="63.623047"/>
       <use xlink:href="#DejaVuSans-30" x="95.410156"/>
      </g>
     </g>
    </g>
    <g id="ytick_4">
     <g id="line2d_45">
      <path d="M 90 277.900369 
L 648 277.900369 
" clip-path="url(#pc6f7da6446)" style="fill: none; stroke: #cccccc; stroke-width: 0.8; stroke-linecap: square"/>
     </g>
     <g id="line2d_46">
      <g>
       <use xlink:href="#m874ed99278" x="90" y="277.900369" style="stroke: #000000; stroke-width: 0.8"/>
      </g>
     </g>
     <g id="text_10">
      <!-- 1.5 -->
      <g transform="translate(67.096875 281.699588)scale(0.1 -0.1)">
       <use xlink:href="#DejaVuSans-31"/>
       <use xlink:href="#DejaVuSans-2e" x="63.623047"/>
       <use xlink:href="#DejaVuSans-35" x="95.410156"/>
      </g>
     </g>
    </g>
    <g id="ytick_5">
     <g id="line2d_47">
      <path d="M 90 221.013826 
L 648 221.013826 
" clip-path="url(#pc6f7da6446)" style="fill: none; stroke: #cccccc; stroke-width: 0.8; stroke-linecap: square"/>
     </g>
     <g id="line2d_48">
      <g>
       <use xlink:href="#m874ed99278" x="90" y="221.013826" style="stroke: #000000; stroke-width: 0.8"/>
      </g>
     </g>
     <g id="text_11">
      <!-- 2.0 -->
      <g transform="translate(67.096875 224.813045)scale(0.1 -0.1)">
       <use xlink:href="#DejaVuSans-32"/>
       <use xlink:href="#DejaVuSans-2e" x="63.623047"/>
       <use xlink:href="#DejaVuSans-30" x="95.410156"/>
      </g>
     </g>
    </g>
    <g id="ytick_6">
     <g id="line2d_49">
      <path d="M 90 164.127282 
L 648 164.127282 
" clip-path="url(#pc6f7da6446)" style="fill: none; stroke: #cccccc; stroke-width: 0.8; stroke-linecap: square"/>
     </g>
     <g id="line2d_50">
      <g>
       <use xlink:href="#m874ed99278" x="90" y="164.127282" style="stroke: #000000; stroke-width: 0.8"/>
      </g>
     </g>
     <g id="text_12">
      <!-- 2.5 -->
      <g transform="translate(67.096875 167.926501)scale(0.1 -0.1)">
       <use xlink:href="#DejaVuSans-32"/>
       <use xlink:href="#DejaVuSans-2e" x="63.623047"/>
       <use xlink:href="#DejaVuSans-35" x="95.410156"/>
      </g>
     </g>
    </g>
    <g id="ytick_7">
     <g id="line2d_51">
      <path d="M 90 107.240739 
L 648 107.240739 
" clip-path="url(#pc6f7da6446)" style="fill: none; stroke: #cccccc; stroke-width: 0.8; stroke-linecap: square"/>
     </g>
     <g id="line2d_52">
      <g>
       <use xlink:href="#m874ed99278" x="90" y="107.240739" style="stroke: #000000; stroke-width: 0.8"/>
      </g>
     </g>
     <g id="text_13">
      <!-- 3.0 -->
      <g transform="translate(67.096875 111.039958)scale(0.1 -0.1)">
       <defs>
        <path id="DejaVuSans-33" d="M 2597 2516 
Q 3050 2419 3304 2112 
Q 3559 1806 3559 1356 
Q 3559 666 3084 287 
Q 2609 -91 1734 -91 
Q 1441 -91 1130 -33 
Q 819 25 488 141 
L 488 750 
Q 750 597 1062 519 
Q 1375 441 1716 441 
Q 2309 441 2620 675 
Q 2931 909 2931 1356 
Q 2931 1769 2642 2001 
Q 2353 2234 1838 2234 
L 1294 2234 
L 1294 2753 
L 1863 2753 
Q 2328 2753 2575 2939 
Q 2822 3125 2822 3475 
Q 2822 3834 2567 4026 
Q 2313 4219 1838 4219 
Q 1578 4219 1281 4162 
Q 984 4106 628 3988 
L 628 4550 
Q 988 4650 1302 4700 
Q 1616 4750 1894 4750 
Q 2613 4750 3031 4423 
Q 3450 4097 3450 3541 
Q 3450 3153 3228 2886 
Q 3006 2619 2597 2516 
z
" transform="scale(0.015625)"/>
       </defs>
       <use xlink:href="#DejaVuSans-33"/>
       <use xlink:href="#DejaVuSans-2e" x="63.623047"/>
       <use xlink:href="#DejaVuSans-30" x="95.410156"/>
      </g>
     </g>
    </g>
    <g id="ytick_8">
     <g id="line2d_53">
      <path d="M 90 437.182691 
L 648 437.182691 
" clip-path="url(#pc6f7da6446)" style="fill: none; stroke-dasharray: 0.8,1.32; stroke-dashoffset: 0; stroke: #e6e6e6; stroke-width: 0.8"/>
     </g>
     <g id="line2d_54">
      <defs>
       <path id="m8e8250aae9" d="M 0 0 
L -2 0 
" style="stroke: #000000; stroke-width: 0.6"/>
      </defs>
      <g>
       <use xlink:href="#m8e8250aae9" x="90" y="437.182691" style="stroke: #000000; stroke-width: 0.6"/>
      </g>
     </g>
    </g>
    <g id="ytick_9">
     <g id="line2d_55">
      <path d="M 90 425.805383 
L 648 425.805383 
" clip-path="url(#pc6f7da6446)" style="fill: none; stroke-dasharray: 0.8,1.32; stroke-dashoffset: 0; stroke: #e6e6e6; stroke-width: 0.8"/>
     </g>
     <g id="line2d_56">
      <g>
       <use xlink:href="#m8e8250aae9" x="90" y="425.805383" style="stroke: #000000; stroke-width: 0.6"/>
      </g>
     </g>
    </g>
    <g id="ytick_10">
     <g id="line2d_57">
      <path d="M 90 414.428074 
L 648 414.428074 
" clip-path="url(#pc6f7da6446)" style="fill: none; stroke-dasharray: 0.8,1.32; stroke-dashoffset: 0; stroke: #e6e6e6; stroke-width: 0.8"/>
     </g>
     <g id="line2d_58">
      <g>
       <use xlink:href="#m8e8250aae9" x="90" y="414.428074" style="stroke: #000000; stroke-width: 0.6"/>
      </g>
     </g>
    </g>
    <g id="ytick_11">
     <g id="line2d_59">
      <path d="M 90 403.050765 
L 648 403.050765 
" clip-path="url(#pc6f7da6446)" style="fill: none; stroke-dasharray: 0.8,1.32; stroke-dashoffset: 0; stroke: #e6e6e6; stroke-width: 0.8"/>
     </g>
     <g id="line2d_60">
      <g>
       <use xlink:href="#m8e8250aae9" x="90" y="403.050765" style="stroke: #000000; stroke-width: 0.6"/>
      </g>
     </g>
    </g>
    <g id="ytick_12">
     <g id="line2d_61">
      <path d="M 90 380.296148 
L 648 380.296148 
" clip-path="url(#pc6f7da6446)" style="fill: none; stroke-dasharray: 0.8,1.32; stroke-dashoffset: 0; stroke: #e6e6e6; stroke-width: 0.8"/>
     </g>
     <g id="line2d_62">
      <g>
       <use xlink:href="#m8e8250aae9" x="90" y="380.296148" style="stroke: #000000; stroke-width: 0.6"/>
      </g>
     </g>
    </g>
    <g id="ytick_13">
     <g id="line2d_63">
      <path d="M 90 368.918839 
L 648 368.918839 
" clip-path="url(#pc6f7da6446)" style="fill: none; stroke-dasharray: 0.8,1.32; stroke-dashoffset: 0; stroke: #e6e6e6; stroke-width: 0.8"/>
     </g>
     <g id="line2d_64">
      <g>
       <use xlink:href="#m8e8250aae9" x="90" y="368.918839" style="stroke: #000000; stroke-width: 0.6"/>
      </g>
     </g>
    </g>
    <g id="ytick_14">
     <g id="line2d_65">
      <path d="M 90 357.54153 
L 648 357.54153 
" clip-path="url(#pc6f7da6446)" style="fill: none; stroke-dasharray: 0.8,1.32; stroke-dashoffset: 0; stroke: #e6e6e6; stroke-width: 0.8"/>
     </g>
     <g id="line2d_66">
      <g>
       <use xlink:href="#m8e8250aae9" x="90" y="357.54153" style="stroke: #000000; stroke-width: 0.6"/>
      </g>
     </g>
    </g>
    <g id="ytick_15">
     <g id="line2d_67">
      <path d="M 90 346.164222 
L 648 346.164222 
" clip-path="url(#pc6f7da6446)" style="fill: none; stroke-dasharray: 0.8,1.32; stroke-dashoffset: 0; stroke: #e6e6e6; stroke-width: 0.8"/>
     </g>
     <g id="line2d_68">
      <g>
       <use xlink:href="#m8e8250aae9" x="90" y="346.164222" style="stroke: #000000; stroke-width: 0.6"/>
      </g>
     </g>
    </g>
    <g id="ytick_16">
     <g id="line2d_69">
      <path d="M 90 323.409604 
L 648 323.409604 
" clip-path="url(#pc6f7da6446)" style="fill: none; stroke-dasharray: 0.8,1.32; stroke-dashoffset: 0; stroke: #e6e6e6; stroke-width: 0.8"/>
     </g>
     <g id="line2d_70">
      <g>
       <use xlink:href="#m8e8250aae9" x="90" y="323.409604" style="stroke: #000000; stroke-width: 0.6"/>
      </g>
     </g>
    </g>
    <g id="ytick_17">
     <g id="line2d_71">
      <path d="M 90 312.032296 
L 648 312.032296 
" clip-path="url(#pc6f7da6446)" style="fill: none; stroke-dasharray: 0.8,1.32; stroke-dashoffset: 0; stroke: #e6e6e6; stroke-width: 0.8"/>
     </g>
     <g id="line2d_72">
      <g>
       <use xlink:href="#m8e8250aae9" x="90" y="312.032296" style="stroke: #000000; stroke-width: 0.6"/>
      </g>
     </g>
    </g>
    <g id="ytick_18">
     <g id="line2d_73">
      <path d="M 90 300.654987 
L 648 300.654987 
" clip-path="url(#pc6f7da6446)" style="fill: none; stroke-dasharray: 0.8,1.32; stroke-dashoffset: 0; stroke: #e6e6e6; stroke-width: 0.8"/>
     </g>
     <g id="line2d_74">
      <g>
       <use xlink:href="#m8e8250aae9" x="90" y="300.654987" style="stroke: #000000; stroke-width: 0.6"/>
      </g>
     </g>
    </g>
    <g id="ytick_19">
     <g id="line2d_75">
      <path d="M 90 289.277678 
L 648 289.277678 
" clip-path="url(#pc6f7da6446)" style="fill: none; stroke-dasharray: 0.8,1.32; stroke-dashoffset: 0; stroke: #e6e6e6; stroke-width: 0.8"/>
     </g>
     <g id="line2d_76">
      <g>
       <use xlink:href="#m8e8250aae9" x="90" y="289.277678" style="stroke: #000000; stroke-width: 0.6"/>
      </g>
     </g>
    </g>
    <g id="ytick_20">
     <g id="line2d_77">
      <path d="M 90 266.523061 
L 648 266.523061 
" clip-path="url(#pc6f7da6446)" style="fill: none; stroke-dasharray: 0.8,1.32; stroke-dashoffset: 0; stroke: #e6e6e6; stroke-width: 0.8"/>
     </g>
     <g id="line2d_78">
      <g>
       <use xlink:href="#m8e8250aae9" x="90" y="266.523061" style="stroke: #000000; stroke-width: 0.6"/>
      </g>
     </g>
    </g>
    <g id="ytick_21">
     <g id="line2d_79">
      <path d="M 90 255.145752 
L 648 255.145752 
" clip-path="url(#pc6f7da6446)" style="fill: none; stroke-dasharray: 0.8,1.32; stroke-dashoffset: 0; stroke: #e6e6e6; stroke-width: 0.8"/>
     </g>
     <g id="line2d_80">
      <g>
       <use xlink:href="#m8e8250aae9" x="90" y="255.145752" style="stroke: #000000; stroke-width: 0.6"/>
      </g>
     </g>
    </g>
    <g id="ytick_22">
     <g id="line2d_81">
      <path d="M 90 243.768443 
L 648 243.768443 
" clip-path="url(#pc6f7da6446)" style="fill: none; stroke-dasharray: 0.8,1.32; stroke-dashoffset: 0; stroke: #e6e6e6; stroke-width: 0.8"/>
     </g>
     <g id="line2d_82">
      <g>
       <use xlink:href="#m8e8250aae9" x="90" y="243.768443" style="stroke: #000000; stroke-width: 0.6"/>
      </g>
     </g>
    </g>
    <g id="ytick_23">
     <g id="line2d_83">
      <path d="M 90 232.391135 
L 648 232.391135 
" clip-path="url(#pc6f7da6446)" style="fill: none; stroke-dasharray: 0.8,1.32; stroke-dashoffset: 0; stroke: #e6e6e6; stroke-width: 0.8"/>
     </g>
     <g id="line2d_84">
      <g>
       <use xlink:href="#m8e8250aae9" x="90" y="232.391135" style="stroke: #000000; stroke-width: 0.6"/>
      </g>
     </g>
    </g>
    <g id="ytick_24">
     <g id="line2d_85">
      <path d="M 90 209.636517 
L 648 209.636517 
" clip-path="url(#pc6f7da6446)" style="fill: none; stroke-dasharray: 0.8,1.32; stroke-dashoffset: 0; stroke: #e6e6e6; stroke-width: 0.8"/>
     </g>
     <g id="line2d_86">
      <g>
       <use xlink:href="#m8e8250aae9" x="90" y="209.636517" style="stroke: #000000; stroke-width: 0.6"/>
      </g>
     </g>
    </g>
    <g id="ytick_25">
     <g id="line2d_87">
      <path d="M 90 198.259208 
L 648 198.259208 
" clip-path="url(#pc6f7da6446)" style="fill: none; stroke-dasharray: 0.8,1.32; stroke-dashoffset: 0; stroke: #e6e6e6; stroke-width: 0.8"/>
     </g>
     <g id="line2d_88">
      <g>
       <use xlink:href="#m8e8250aae9" x="90" y="198.259208" style="stroke: #000000; stroke-width: 0.6"/>
      </g>
     </g>
    </g>
    <g id="ytick_26">
     <g id="line2d_89">
      <path d="M 90 186.8819 
L 648 186.8819 
" clip-path="url(#pc6f7da6446)" style="fill: none; stroke-dasharray: 0.8,1.32; stroke-dashoffset: 0; stroke: #e6e6e6; stroke-width: 0.8"/>
     </g>
     <g id="line2d_90">
      <g>
       <use xlink:href="#m8e8250aae9" x="90" y="186.8819" style="stroke: #000000; stroke-width: 0.6"/>
      </g>
     </g>
    </g>
    <g id="ytick_27">
     <g id="line2d_91">
      <path d="M 90 175.504591 
L 648 175.504591 
" clip-path="url(#pc6f7da6446)" style="fill: none; stroke-dasharray: 0.8,1.32; stroke-dashoffset: 0; stroke: #e6e6e6; stroke-width: 0.8"/>
     </g>
     <g id="line2d_92">
      <g>
       <use xlink:href="#m8e8250aae9" x="90" y="175.504591" style="stroke: #000000; stroke-width: 0.6"/>
      </g>
     </g>
    </g>
    <g id="ytick_28">
     <g id="line2d_93">
      <path d="M 90 152.749974 
L 648 152.749974 
" clip-path="url(#pc6f7da6446)" style="fill: none; stroke-dasharray: 0.8,1.32; stroke-dashoffset: 0; stroke: #e6e6e6; stroke-width: 0.8"/>
     </g>
     <g id="line2d_94">
      <g>
       <use xlink:href="#m8e8250aae9" x="90" y="152.749974" style="stroke: #000000; stroke-width: 0.6"/>
      </g>
     </g>
    </g>
    <g id="ytick_29">
     <g id="line2d_95">
      <path d="M 90 141.372665 
L 648 141.372665 
" clip-path="url(#pc6f7da6446)" style="fill: none; stroke-dasharray: 0.8,1.32; stroke-dashoffset: 0; stroke: #e6e6e6; stroke-width: 0.8"/>
     </g>
     <g id="line2d_96">
      <g>
       <use xlink:href="#m8e8250aae9" x="90" y="141.372665" style="stroke: #000000; stroke-width: 0.6"/>
      </g>
     </g>
    </g>
    <g id="ytick_30">
     <g id="line2d_97">
      <path d="M 90 129.995356 
L 648 129.995356 
" clip-path="url(#pc6f7da6446)" style="fill: none; stroke-dasharray: 0.8,1.32; stroke-dashoffset: 0; stroke: #e6e6e6; stroke-width: 0.8"/>
     </g>
     <g id="line2d_98">
      <g>
       <use xlink:href="#m8e8250aae9" x="90" y="129.995356" style="stroke: #000000; stroke-width: 0.6"/>
      </g>
     </g>
    </g>
    <g id="ytick_31">
     <g id="line2d_99">
      <path d="M 90 118.618047 
L 648 118.618047 
" clip-path="url(#pc6f7da6446)" style="fill: none; stroke-dasharray: 0.8,1.32; stroke-dashoffset: 0; stroke: #e6e6e6; stroke-width: 0.8"/>
     </g>
     <g id="line2d_100">
      <g>
       <use xlink:href="#m8e8250aae9" x="90" y="118.618047" style="stroke: #000000; stroke-width: 0.6"/>
      </g>
     </g>
    </g>
    <g id="ytick_32">
     <g id="line2d_101">
      <path d="M 90 95.86343 
L 648 95.86343 
" clip-path="url(#pc6f7da6446)" style="fill: none; stroke-dasharray: 0.8,1.32; stroke-dashoffset: 0; stroke: #e6e6e6; stroke-width: 0.8"/>
     </g>
     <g id="line2d_102">
      <g>
       <use xlink:href="#m8e8250aae9" x="90" y="95.86343" style="stroke: #000000; stroke-width: 0.6"/>
      </g>
     </g>
    </g>
    <g id="ytick_33">
     <g id="line2d_103">
      <path d="M 90 84.486121 
L 648 84.486121 
" clip-path="url(#pc6f7da6446)" style="fill: none; stroke-dasharray: 0.8,1.32; stroke-dashoffset: 0; stroke: #e6e6e6; stroke-width: 0.8"/>
     </g>
     <g id="line2d_104">
      <g>
       <use xlink:href="#m8e8250aae9" x="90" y="84.486121" style="stroke: #000000; stroke-width: 0.6"/>
      </g>
     </g>
    </g>
    <g id="ytick_34">
     <g id="line2d_105">
      <path d="M 90 73.108813 
L 648 73.108813 
" clip-path="url(#pc6f7da6446)" style="fill: none; stroke-dasharray: 0.8,1.32; stroke-dashoffset: 0; stroke: #e6e6e6; stroke-width: 0.8"/>
     </g>
     <g id="line2d_106">
      <g>
       <use xlink:href="#m8e8250aae9" x="90" y="73.108813" style="stroke: #000000; stroke-width: 0.6"/>
      </g>
     </g>
    </g>
    <g id="ytick_35">
     <g id="line2d_107">
      <path d="M 90 61.731504 
L 648 61.731504 
" clip-path="url(#pc6f7da6446)" style="fill: none; stroke-dasharray: 0.8,1.32; stroke-dashoffset: 0; stroke: #e6e6e6; stroke-width: 0.8"/>
     </g>
     <g id="line2d_108">
      <g>
       <use xlink:href="#m8e8250aae9" x="90" y="61.731504" style="stroke: #000000; stroke-width: 0.6"/>
      </g>
     </g>
    </g>
    <g id="text_14">
     <!-- Напряжение, В -->
     <g transform="translate(60.60125 302.59125)rotate(-90)scale(0.12 -0.12)">
      <defs>
       <path id="DejaVuSans-41d" d="M 628 4666 
L 1259 4666 
L 1259 2753 
L 3553 2753 
L 3553 4666 
L 4184 4666 
L 4184 0 
L 3553 0 
L 3553 2222 
L 1259 2222 
L 1259 0 
L 628 0 
L 628 4666 
z
" transform="scale(0.015625)"/>
       <path id="DejaVuSans-430" d="M 2194 1759 
Q 1497 1759 1228 1600 
Q 959 1441 959 1056 
Q 959 750 1161 570 
Q 1363 391 1709 391 
Q 2188 391 2477 730 
Q 2766 1069 2766 1631 
L 2766 1759 
L 2194 1759 
z
M 3341 1997 
L 3341 0 
L 2766 0 
L 2766 531 
Q 2569 213 2275 61 
Q 1981 -91 1556 -91 
Q 1019 -91 701 211 
Q 384 513 384 1019 
Q 384 1609 779 1909 
Q 1175 2209 1959 2209 
L 2766 2209 
L 2766 2266 
Q 2766 2663 2505 2880 
Q 2244 3097 1772 3097 
Q 1472 3097 1187 3025 
Q 903 2953 641 2809 
L 641 3341 
Q 956 3463 1253 3523 
Q 1550 3584 1831 3584 
Q 2591 3584 2966 3190 
Q 3341 2797 3341 1997 
z
" transform="scale(0.015625)"/>
       <path id="DejaVuSans-43f" d="M 3603 3500 
L 3603 0 
L 3025 0 
L 3025 3041 
L 1159 3041 
L 1159 0 
L 581 0 
L 581 3500 
L 3603 3500 
z
" transform="scale(0.015625)"/>
       <path id="DejaVuSans-436" d="M 2597 3500 
L 3169 3500 
L 3169 1856 
L 4697 3500 
L 5366 3500 
L 4109 2153 
L 5547 0 
L 4931 0 
L 3753 1769 
L 3169 1141 
L 3169 0 
L 2597 0 
L 2597 1141 
L 2013 1769 
L 834 0 
L 219 0 
L 1656 2153 
L 400 3500 
L 1069 3500 
L 2597 1856 
L 2597 3500 
z
" transform="scale(0.015625)"/>
       <path id="DejaVuSans-43d" d="M 581 3500 
L 1159 3500 
L 1159 2072 
L 3025 2072 
L 3025 3500 
L 3603 3500 
L 3603 0 
L 3025 0 
L 3025 1613 
L 1159 1613 
L 1159 0 
L 581 0 
L 581 3500 
z
" transform="scale(0.015625)"/>
       <path id="DejaVuSans-438" d="M 3578 3500 
L 3578 0 
L 3006 0 
L 3006 2809 
L 1319 0 
L 581 0 
L 581 3500 
L 1153 3500 
L 1153 697 
L 2838 3500 
L 3578 3500 
z
" transform="scale(0.015625)"/>
      </defs>
      <use xlink:href="#DejaVuSans-41d"/>
      <use xlink:href="#DejaVuSans-430" x="75.195312"/>
      <use xlink:href="#DejaVuSans-43f" x="136.474609"/>
      <use xlink:href="#DejaVuSans-440" x="201.855469"/>
      <use xlink:href="#DejaVuSans-44f" x="265.332031"/>
      <use xlink:href="#DejaVuSans-436" x="325.488281"/>
      <use xlink:href="#DejaVuSans-435" x="415.576172"/>
      <use xlink:href="#DejaVuSans-43d" x="477.099609"/>
      <use xlink:href="#DejaVuSans-438" x="542.480469"/>
      <use xlink:href="#DejaVuSans-435" x="607.470703"/>
      <use xlink:href="#DejaVuSans-2c" x="668.994141"/>
      <use xlink:href="#DejaVuSans-20" x="700.78125"/>
      <use xlink:href="#DejaVuSans-412" x="732.568359"/>
     </g>
    </g>
   </g>
   <g id="line2d_109">
    <path d="M 90 447.08095 
L 90.622074 441.164749 
L 92.488294 432.290449 
L 93.110368 426.374248 
L 94.354515 420.458047 
L 94.976589 414.541847 
L 95.598662 414.541847 
L 96.220736 408.625646 
L 96.842809 408.625646 
L 97.464883 402.709446 
L 98.086957 402.709446 
L 98.70903 393.835145 
L 106.795987 355.379842 
L 107.41806 355.379842 
L 108.040134 349.463641 
L 110.528428 337.63124 
L 111.150502 337.63124 
L 111.772575 331.71504 
L 112.394649 331.71504 
L 117.371237 308.050237 
L 117.993311 308.050237 
L 120.481605 296.217836 
L 121.103679 296.217836 
L 123.591973 284.385435 
L 124.214047 284.385435 
L 125.458194 278.469235 
L 126.080268 278.469235 
L 127.324415 272.553034 
L 127.946488 272.553034 
L 129.190635 266.636834 
L 129.812709 266.636834 
L 131.056856 260.720633 
L 132.301003 260.720633 
L 132.923077 254.804433 
L 133.545151 254.804433 
L 134.167224 251.846332 
L 134.789298 251.846332 
L 136.033445 245.930132 
L 136.655518 245.930132 
L 137.277592 242.972032 
L 137.899666 242.972032 
L 139.143813 237.055831 
L 140.38796 237.055831 
L 141.632107 231.139631 
L 142.876254 231.139631 
L 144.120401 225.22343 
L 144.742475 225.22343 
L 145.364548 222.26533 
L 145.986622 222.26533 
L 146.608696 219.30723 
L 147.230769 219.30723 
L 147.852843 216.349129 
L 148.474916 216.349129 
L 149.09699 213.391029 
L 150.963211 213.391029 
L 151.585284 207.474828 
L 152.829431 207.474828 
L 153.451505 204.516728 
L 154.073579 204.516728 
L 154.695652 201.558628 
L 155.939799 201.558628 
L 156.561873 198.600528 
L 157.183946 198.600528 
L 157.80602 195.642427 
L 158.428094 195.642427 
L 159.050167 192.684327 
L 160.916388 192.684327 
L 162.160535 186.768127 
L 163.404682 186.768127 
L 164.026756 183.810026 
L 165.270903 183.810026 
L 165.892977 180.851926 
L 166.51505 180.851926 
L 167.137124 177.893826 
L 169.003344 177.893826 
L 169.625418 174.935726 
L 170.247492 174.935726 
L 170.869565 171.977625 
L 172.113712 171.977625 
L 172.735786 169.019525 
L 174.602007 169.019525 
L 175.846154 163.103325 
L 179.578595 163.103325 
L 180.822742 157.187124 
L 183.311037 157.187124 
L 183.93311 154.229024 
L 185.799331 154.229024 
L 186.421405 151.270923 
L 187.665552 151.270923 
L 188.287625 148.312823 
L 189.531773 148.312823 
L 190.153846 145.354723 
L 192.64214 145.354723 
L 193.264214 142.396623 
L 195.752508 142.396623 
L 196.374582 139.438522 
L 198.862876 139.438522 
L 199.48495 136.480422 
L 201.973244 136.480422 
L 202.595318 133.522322 
L 203.839465 133.522322 
L 204.461538 130.564222 
L 205.083612 133.522322 
L 205.705686 130.564222 
L 207.571906 130.564222 
L 208.19398 127.606121 
L 212.548495 127.606121 
L 213.170569 124.648021 
L 216.280936 124.648021 
L 216.90301 121.689921 
L 220.013378 121.689921 
L 220.635452 118.731821 
L 223.123746 118.731821 
L 223.745819 115.77372 
L 230.588629 115.77372 
L 231.210702 112.81562 
L 236.187291 112.81562 
L 236.809365 109.85752 
L 237.431438 112.81562 
L 238.053512 109.85752 
L 241.16388 109.85752 
L 241.785953 106.89942 
L 242.408027 109.85752 
L 243.0301 106.89942 
L 248.628763 106.89942 
L 249.250836 103.941319 
L 254.849498 103.941319 
L 255.471572 100.983219 
L 261.070234 100.983219 
L 261.692308 98.025119 
L 262.314381 100.983219 
L 262.936455 100.983219 
L 263.558528 98.025119 
L 269.157191 98.025119 
L 269.779264 95.067018 
L 270.401338 98.025119 
L 271.023411 98.025119 
L 271.645485 95.067018 
L 272.267559 98.025119 
L 272.889632 98.025119 
L 273.511706 95.067018 
L 278.488294 95.067018 
L 279.110368 92.108918 
L 279.732441 95.067018 
L 280.354515 95.067018 
L 280.976589 92.108918 
L 281.598662 92.108918 
L 282.220736 95.067018 
L 284.086957 95.067018 
L 284.70903 92.108918 
L 296.528428 92.108918 
L 297.150502 89.150818 
L 297.772575 92.108918 
L 298.394649 89.150818 
L 312.080268 89.150818 
L 312.702341 86.192718 
L 313.324415 86.192718 
L 313.946488 89.150818 
L 314.568562 89.150818 
L 315.190635 86.192718 
L 315.812709 86.192718 
L 316.434783 89.150818 
L 317.056856 86.192718 
L 327.632107 86.192718 
L 328.254181 83.234617 
L 328.876254 89.150818 
L 329.498328 92.108918 
L 330.120401 92.108918 
L 330.742475 98.025119 
L 331.986622 103.941319 
L 332.608696 109.85752 
L 333.230769 109.85752 
L 333.852843 115.77372 
L 334.474916 115.77372 
L 335.09699 121.689921 
L 336.341137 127.606121 
L 336.963211 127.606121 
L 337.585284 133.522322 
L 338.207358 133.522322 
L 344.428094 163.103325 
L 345.050167 163.103325 
L 348.160535 177.893826 
L 348.782609 177.893826 
L 349.404682 183.810026 
L 350.026756 183.810026 
L 350.648829 186.768127 
L 351.270903 186.768127 
L 354.381271 201.558628 
L 355.003344 201.558628 
L 357.491639 213.391029 
L 358.113712 213.391029 
L 359.35786 219.30723 
L 359.979933 219.30723 
L 360.602007 222.26533 
L 361.22408 222.26533 
L 363.090301 231.139631 
L 363.712375 231.139631 
L 364.334448 234.097731 
L 364.956522 234.097731 
L 366.200669 240.013931 
L 366.822742 240.013931 
L 368.06689 245.930132 
L 368.688963 245.930132 
L 369.311037 248.888232 
L 369.93311 248.888232 
L 370.555184 251.846332 
L 371.177258 251.846332 
L 371.799331 254.804433 
L 372.421405 254.804433 
L 373.043478 257.762533 
L 373.665552 257.762533 
L 374.287625 260.720633 
L 374.909699 260.720633 
L 375.531773 263.678734 
L 376.153846 263.678734 
L 377.397993 269.594934 
L 378.64214 269.594934 
L 379.264214 272.553034 
L 379.886288 272.553034 
L 380.508361 275.511135 
L 381.130435 275.511135 
L 382.374582 281.427335 
L 383.618729 281.427335 
L 384.240803 284.385435 
L 384.862876 284.385435 
L 385.48495 287.343536 
L 386.107023 287.343536 
L 386.729097 290.301636 
L 387.351171 290.301636 
L 387.973244 293.259736 
L 389.217391 293.259736 
L 389.839465 296.217836 
L 390.461538 296.217836 
L 391.083612 299.175937 
L 391.705686 299.175937 
L 392.327759 302.134037 
L 392.949833 302.134037 
L 393.571906 305.092137 
L 395.438127 305.092137 
L 396.682274 311.008338 
L 397.926421 311.008338 
L 398.548495 313.966438 
L 399.170569 313.966438 
L 399.792642 316.924538 
L 401.658863 316.924538 
L 402.280936 319.882639 
L 402.90301 319.882639 
L 403.525084 322.840739 
L 404.769231 322.840739 
L 405.391304 325.798839 
L 406.013378 325.798839 
L 406.635452 328.756939 
L 407.879599 328.756939 
L 408.501672 331.71504 
L 410.367893 331.71504 
L 410.989967 334.67314 
L 412.234114 334.67314 
L 412.856187 337.63124 
L 414.100334 337.63124 
L 414.722408 340.58934 
L 416.588629 340.58934 
L 417.210702 343.547441 
L 417.832776 343.547441 
L 418.454849 346.505541 
L 420.32107 346.505541 
L 420.943144 349.463641 
L 422.187291 349.463641 
L 422.809365 352.421741 
L 423.431438 352.421741 
L 424.053512 355.379842 
L 427.785953 355.379842 
L 428.408027 358.337942 
L 429.652174 358.337942 
L 430.274247 361.296042 
L 431.518395 361.296042 
L 432.140468 364.254142 
L 434.628763 364.254142 
L 435.250836 367.212243 
L 437.117057 367.212243 
L 437.73913 370.170343 
L 438.983278 370.170343 
L 439.605351 373.128443 
L 442.093645 373.128443 
L 442.715719 376.086544 
L 445.204013 376.086544 
L 445.826087 379.044644 
L 446.448161 376.086544 
L 447.070234 379.044644 
L 448.314381 379.044644 
L 448.936455 382.002744 
L 451.424749 382.002744 
L 452.046823 384.960844 
L 454.535117 384.960844 
L 455.157191 387.918945 
L 457.645485 387.918945 
L 458.267559 390.877045 
L 462 390.877045 
L 462.622074 393.835145 
L 465.110368 393.835145 
L 465.732441 396.793245 
L 468.220736 396.793245 
L 468.842809 399.751346 
L 469.464883 396.793245 
L 470.086957 399.751346 
L 471.953177 399.751346 
L 472.575251 402.709446 
L 478.795987 402.709446 
L 479.41806 405.667546 
L 483.772575 405.667546 
L 484.394649 408.625646 
L 487.505017 408.625646 
L 488.12709 411.583747 
L 493.725753 411.583747 
L 494.347826 414.541847 
L 500.568562 414.541847 
L 501.190635 417.499947 
L 506.167224 417.499947 
L 506.789298 420.458047 
L 507.411371 417.499947 
L 508.033445 420.458047 
L 514.876254 420.458047 
L 515.498328 423.416148 
L 521.09699 423.416148 
L 521.719064 426.374248 
L 531.672241 426.374248 
L 532.294314 429.332348 
L 542.247492 429.332348 
L 542.869565 432.290449 
L 543.491639 429.332348 
L 544.113712 432.290449 
L 554.06689 432.290449 
L 554.688963 435.248549 
L 567.752508 435.248549 
L 568.374582 438.206649 
L 568.996656 435.248549 
L 570.862876 435.248549 
L 571.48495 438.206649 
L 572.107023 438.206649 
L 572.729097 435.248549 
L 573.351171 438.206649 
L 585.792642 438.206649 
L 586.414716 441.164749 
L 587.036789 438.206649 
L 592.013378 438.206649 
L 592.635452 441.164749 
L 593.879599 441.164749 
L 594.501672 438.206649 
L 595.123746 441.164749 
L 611.919732 441.164749 
L 612.541806 444.12285 
L 613.16388 441.164749 
L 614.408027 441.164749 
L 615.0301 444.12285 
L 647.377926 444.12285 
L 648 447.08095 
L 648 447.08095 
" clip-path="url(#pc6f7da6446)" style="fill: none; stroke: #1f77b4; stroke-width: 2; stroke-linecap: square"/>
    <defs>
     <path id="m4b23a76724" d="M 0 2 
C 0.530406 2 1.03916 1.789267 1.414214 1.414214 
C 1.789267 1.03916 2 0.530406 2 0 
C 2 -0.530406 1.789267 -1.03916 1.414214 -1.414214 
C 1.03916 -1.789267 0.530406 -2 0 -2 
C -0.530406 -2 -1.03916 -1.789267 -1.414214 -1.414214 
C -1.789267 -1.03916 -2 -0.530406 -2 0 
C -2 0.530406 -1.789267 1.03916 -1.414214 1.414214 
C -1.03916 1.789267 -0.530406 2 0 2 
z
" style="stroke: #1f77b4"/>
    </defs>
    <g clip-path="url(#pc6f7da6446)">
     <use xlink:href="#m4b23a76724" x="90" y="447.08095" style="fill: #1f77b4; stroke: #1f77b4"/>
     <use xlink:href="#m4b23a76724" x="96.220736" y="408.625646" style="fill: #1f77b4; stroke: #1f77b4"/>
     <use xlink:href="#m4b23a76724" x="102.441472" y="376.086544" style="fill: #1f77b4; stroke: #1f77b4"/>
     <use xlink:href="#m4b23a76724" x="108.662207" y="346.505541" style="fill: #1f77b4; stroke: #1f77b4"/>
     <use xlink:href="#m4b23a76724" x="114.882943" y="319.882639" style="fill: #1f77b4; stroke: #1f77b4"/>
     <use xlink:href="#m4b23a76724" x="121.103679" y="296.217836" style="fill: #1f77b4; stroke: #1f77b4"/>
     <use xlink:href="#m4b23a76724" x="127.324415" y="272.553034" style="fill: #1f77b4; stroke: #1f77b4"/>
     <use xlink:href="#m4b23a76724" x="133.545151" y="254.804433" style="fill: #1f77b4; stroke: #1f77b4"/>
     <use xlink:href="#m4b23a76724" x="139.765886" y="237.055831" style="fill: #1f77b4; stroke: #1f77b4"/>
     <use xlink:href="#m4b23a76724" x="145.986622" y="222.26533" style="fill: #1f77b4; stroke: #1f77b4"/>
     <use xlink:href="#m4b23a76724" x="152.207358" y="207.474828" style="fill: #1f77b4; stroke: #1f77b4"/>
     <use xlink:href="#m4b23a76724" x="158.428094" y="195.642427" style="fill: #1f77b4; stroke: #1f77b4"/>
     <use xlink:href="#m4b23a76724" x="164.648829" y="183.810026" style="fill: #1f77b4; stroke: #1f77b4"/>
     <use xlink:href="#m4b23a76724" x="170.869565" y="171.977625" style="fill: #1f77b4; stroke: #1f77b4"/>
     <use xlink:href="#m4b23a76724" x="177.090301" y="163.103325" style="fill: #1f77b4; stroke: #1f77b4"/>
     <use xlink:href="#m4b23a76724" x="183.311037" y="157.187124" style="fill: #1f77b4; stroke: #1f77b4"/>
     <use xlink:href="#m4b23a76724" x="189.531773" y="148.312823" style="fill: #1f77b4; stroke: #1f77b4"/>
     <use xlink:href="#m4b23a76724" x="195.752508" y="142.396623" style="fill: #1f77b4; stroke: #1f77b4"/>
     <use xlink:href="#m4b23a76724" x="201.973244" y="136.480422" style="fill: #1f77b4; stroke: #1f77b4"/>
     <use xlink:href="#m4b23a76724" x="208.19398" y="127.606121" style="fill: #1f77b4; stroke: #1f77b4"/>
     <use xlink:href="#m4b23a76724" x="214.414716" y="124.648021" style="fill: #1f77b4; stroke: #1f77b4"/>
     <use xlink:href="#m4b23a76724" x="220.635452" y="118.731821" style="fill: #1f77b4; stroke: #1f77b4"/>
     <use xlink:href="#m4b23a76724" x="226.856187" y="115.77372" style="fill: #1f77b4; stroke: #1f77b4"/>
     <use xlink:href="#m4b23a76724" x="233.076923" y="112.81562" style="fill: #1f77b4; stroke: #1f77b4"/>
     <use xlink:href="#m4b23a76724" x="239.297659" y="109.85752" style="fill: #1f77b4; stroke: #1f77b4"/>
     <use xlink:href="#m4b23a76724" x="245.518395" y="106.89942" style="fill: #1f77b4; stroke: #1f77b4"/>
     <use xlink:href="#m4b23a76724" x="251.73913" y="103.941319" style="fill: #1f77b4; stroke: #1f77b4"/>
     <use xlink:href="#m4b23a76724" x="257.959866" y="100.983219" style="fill: #1f77b4; stroke: #1f77b4"/>
     <use xlink:href="#m4b23a76724" x="264.180602" y="98.025119" style="fill: #1f77b4; stroke: #1f77b4"/>
     <use xlink:href="#m4b23a76724" x="270.401338" y="98.025119" style="fill: #1f77b4; stroke: #1f77b4"/>
     <use xlink:href="#m4b23a76724" x="276.622074" y="95.067018" style="fill: #1f77b4; stroke: #1f77b4"/>
     <use xlink:href="#m4b23a76724" x="282.842809" y="95.067018" style="fill: #1f77b4; stroke: #1f77b4"/>
     <use xlink:href="#m4b23a76724" x="289.063545" y="92.108918" style="fill: #1f77b4; stroke: #1f77b4"/>
     <use xlink:href="#m4b23a76724" x="295.284281" y="92.108918" style="fill: #1f77b4; stroke: #1f77b4"/>
     <use xlink:href="#m4b23a76724" x="301.505017" y="89.150818" style="fill: #1f77b4; stroke: #1f77b4"/>
     <use xlink:href="#m4b23a76724" x="307.725753" y="89.150818" style="fill: #1f77b4; stroke: #1f77b4"/>
     <use xlink:href="#m4b23a76724" x="313.946488" y="89.150818" style="fill: #1f77b4; stroke: #1f77b4"/>
     <use xlink:href="#m4b23a76724" x="320.167224" y="86.192718" style="fill: #1f77b4; stroke: #1f77b4"/>
     <use xlink:href="#m4b23a76724" x="326.38796" y="86.192718" style="fill: #1f77b4; stroke: #1f77b4"/>
     <use xlink:href="#m4b23a76724" x="332.608696" y="109.85752" style="fill: #1f77b4; stroke: #1f77b4"/>
     <use xlink:href="#m4b23a76724" x="338.829431" y="136.480422" style="fill: #1f77b4; stroke: #1f77b4"/>
     <use xlink:href="#m4b23a76724" x="345.050167" y="163.103325" style="fill: #1f77b4; stroke: #1f77b4"/>
     <use xlink:href="#m4b23a76724" x="351.270903" y="186.768127" style="fill: #1f77b4; stroke: #1f77b4"/>
     <use xlink:href="#m4b23a76724" x="357.491639" y="213.391029" style="fill: #1f77b4; stroke: #1f77b4"/>
     <use xlink:href="#m4b23a76724" x="363.712375" y="231.139631" style="fill: #1f77b4; stroke: #1f77b4"/>
     <use xlink:href="#m4b23a76724" x="369.93311" y="248.888232" style="fill: #1f77b4; stroke: #1f77b4"/>
     <use xlink:href="#m4b23a76724" x="376.153846" y="263.678734" style="fill: #1f77b4; stroke: #1f77b4"/>
     <use xlink:href="#m4b23a76724" x="382.374582" y="281.427335" style="fill: #1f77b4; stroke: #1f77b4"/>
     <use xlink:href="#m4b23a76724" x="388.595318" y="293.259736" style="fill: #1f77b4; stroke: #1f77b4"/>
     <use xlink:href="#m4b23a76724" x="394.816054" y="305.092137" style="fill: #1f77b4; stroke: #1f77b4"/>
     <use xlink:href="#m4b23a76724" x="401.036789" y="316.924538" style="fill: #1f77b4; stroke: #1f77b4"/>
     <use xlink:href="#m4b23a76724" x="407.257525" y="328.756939" style="fill: #1f77b4; stroke: #1f77b4"/>
     <use xlink:href="#m4b23a76724" x="413.478261" y="337.63124" style="fill: #1f77b4; stroke: #1f77b4"/>
     <use xlink:href="#m4b23a76724" x="419.698997" y="346.505541" style="fill: #1f77b4; stroke: #1f77b4"/>
     <use xlink:href="#m4b23a76724" x="425.919732" y="355.379842" style="fill: #1f77b4; stroke: #1f77b4"/>
     <use xlink:href="#m4b23a76724" x="432.140468" y="364.254142" style="fill: #1f77b4; stroke: #1f77b4"/>
     <use xlink:href="#m4b23a76724" x="438.361204" y="370.170343" style="fill: #1f77b4; stroke: #1f77b4"/>
     <use xlink:href="#m4b23a76724" x="444.58194" y="376.086544" style="fill: #1f77b4; stroke: #1f77b4"/>
     <use xlink:href="#m4b23a76724" x="450.802676" y="382.002744" style="fill: #1f77b4; stroke: #1f77b4"/>
     <use xlink:href="#m4b23a76724" x="457.023411" y="387.918945" style="fill: #1f77b4; stroke: #1f77b4"/>
     <use xlink:href="#m4b23a76724" x="463.244147" y="393.835145" style="fill: #1f77b4; stroke: #1f77b4"/>
     <use xlink:href="#m4b23a76724" x="469.464883" y="396.793245" style="fill: #1f77b4; stroke: #1f77b4"/>
     <use xlink:href="#m4b23a76724" x="475.685619" y="402.709446" style="fill: #1f77b4; stroke: #1f77b4"/>
     <use xlink:href="#m4b23a76724" x="481.906355" y="405.667546" style="fill: #1f77b4; stroke: #1f77b4"/>
     <use xlink:href="#m4b23a76724" x="488.12709" y="411.583747" style="fill: #1f77b4; stroke: #1f77b4"/>
     <use xlink:href="#m4b23a76724" x="494.347826" y="414.541847" style="fill: #1f77b4; stroke: #1f77b4"/>
     <use xlink:href="#m4b23a76724" x="500.568562" y="414.541847" style="fill: #1f77b4; stroke: #1f77b4"/>
     <use xlink:href="#m4b23a76724" x="506.789298" y="420.458047" style="fill: #1f77b4; stroke: #1f77b4"/>
     <use xlink:href="#m4b23a76724" x="513.010033" y="420.458047" style="fill: #1f77b4; stroke: #1f77b4"/>
     <use xlink:href="#m4b23a76724" x="519.230769" y="423.416148" style="fill: #1f77b4; stroke: #1f77b4"/>
     <use xlink:href="#m4b23a76724" x="525.451505" y="426.374248" style="fill: #1f77b4; stroke: #1f77b4"/>
     <use xlink:href="#m4b23a76724" x="531.672241" y="426.374248" style="fill: #1f77b4; stroke: #1f77b4"/>
     <use xlink:href="#m4b23a76724" x="537.892977" y="429.332348" style="fill: #1f77b4; stroke: #1f77b4"/>
     <use xlink:href="#m4b23a76724" x="544.113712" y="432.290449" style="fill: #1f77b4; stroke: #1f77b4"/>
     <use xlink:href="#m4b23a76724" x="550.334448" y="432.290449" style="fill: #1f77b4; stroke: #1f77b4"/>
     <use xlink:href="#m4b23a76724" x="556.555184" y="435.248549" style="fill: #1f77b4; stroke: #1f77b4"/>
     <use xlink:href="#m4b23a76724" x="562.77592" y="435.248549" style="fill: #1f77b4; stroke: #1f77b4"/>
     <use xlink:href="#m4b23a76724" x="568.996656" y="435.248549" style="fill: #1f77b4; stroke: #1f77b4"/>
     <use xlink:href="#m4b23a76724" x="575.217391" y="438.206649" style="fill: #1f77b4; stroke: #1f77b4"/>
     <use xlink:href="#m4b23a76724" x="581.438127" y="438.206649" style="fill: #1f77b4; stroke: #1f77b4"/>
     <use xlink:href="#m4b23a76724" x="587.658863" y="438.206649" style="fill: #1f77b4; stroke: #1f77b4"/>
     <use xlink:href="#m4b23a76724" x="593.879599" y="441.164749" style="fill: #1f77b4; stroke: #1f77b4"/>
     <use xlink:href="#m4b23a76724" x="600.100334" y="441.164749" style="fill: #1f77b4; stroke: #1f77b4"/>
     <use xlink:href="#m4b23a76724" x="606.32107" y="441.164749" style="fill: #1f77b4; stroke: #1f77b4"/>
     <use xlink:href="#m4b23a76724" x="612.541806" y="444.12285" style="fill: #1f77b4; stroke: #1f77b4"/>
     <use xlink:href="#m4b23a76724" x="618.762542" y="444.12285" style="fill: #1f77b4; stroke: #1f77b4"/>
     <use xlink:href="#m4b23a76724" x="624.983278" y="444.12285" style="fill: #1f77b4; stroke: #1f77b4"/>
     <use xlink:href="#m4b23a76724" x="631.204013" y="444.12285" style="fill: #1f77b4; stroke: #1f77b4"/>
     <use xlink:href="#m4b23a76724" x="637.424749" y="444.12285" style="fill: #1f77b4; stroke: #1f77b4"/>
     <use xlink:href="#m4b23a76724" x="643.645485" y="444.12285" style="fill: #1f77b4; stroke: #1f77b4"/>
    </g>
   </g>
   <g id="patch_3">
    <path d="M 90 448.56 
L 90 60.48 
" style="fill: none; stroke: #000000; stroke-width: 0.8; stroke-linejoin: miter; stroke-linecap: square"/>
   </g>
   <g id="patch_4">
    <path d="M 648 448.56 
L 648 60.48 
" style="fill: none; stroke: #000000; stroke-width: 0.8; stroke-linejoin: miter; stroke-linecap: square"/>
   </g>
   <g id="patch_5">
    <path d="M 90 448.56 
L 648 448.56 
" style="fill: none; stroke: #000000; stroke-width: 0.8; stroke-linejoin: miter; stroke-linecap: square"/>
   </g>
   <g id="patch_6">
    <path d="M 90 60.48 
L 648 60.48 
" style="fill: none; stroke: #000000; stroke-width: 0.8; stroke-linejoin: miter; stroke-linecap: square"/>
   </g>
   <g id="text_15">
    <!-- Время зарядки: 40.2 c -->
    <g transform="translate(183 265.897309)scale(0.1 -0.1)">
     <defs>
      <path id="DejaVuSans-437" d="M 2206 1888 
Q 2594 1813 2809 1584 
Q 3025 1356 3025 1019 
Q 3025 478 2622 193 
Q 2219 -91 1475 -91 
Q 1225 -91 961 -47 
Q 697 -3 416 84 
L 416 619 
Q 638 503 903 445 
Q 1169 388 1459 388 
Q 1931 388 2195 563 
Q 2459 738 2459 1019 
Q 2459 1294 2225 1461 
Q 1991 1628 1563 1628 
L 1100 1628 
L 1100 2103 
L 1584 2103 
Q 1947 2103 2158 2242 
Q 2369 2381 2369 2600 
Q 2369 2800 2151 2944 
Q 1934 3088 1563 3088 
Q 1341 3088 1089 3047 
Q 838 3006 534 2916 
L 534 3438 
Q 841 3513 1106 3550 
Q 1372 3588 1609 3588 
Q 2222 3588 2576 3342 
Q 2931 3097 2931 2656 
Q 2931 2366 2743 2164 
Q 2556 1963 2206 1888 
z
" transform="scale(0.015625)"/>
      <path id="DejaVuSans-434" d="M 1384 459 
L 3053 459 
L 3053 3041 
L 1844 3041 
L 1844 2603 
Q 1844 1316 1475 628 
L 1384 459 
z
M 550 459 
Q 834 584 959 850 
Q 1266 1509 1266 2838 
L 1266 3500 
L 3631 3500 
L 3631 459 
L 4091 459 
L 4091 -884 
L 3631 -884 
L 3631 0 
L 794 0 
L 794 -884 
L 334 -884 
L 334 459 
L 550 459 
z
" transform="scale(0.015625)"/>
      <path id="DejaVuSans-43a" d="M 581 3500 
L 1153 3500 
L 1153 1856 
L 2775 3500 
L 3481 3500 
L 2144 2147 
L 3653 0 
L 3009 0 
L 1769 1766 
L 1153 1141 
L 1153 0 
L 581 0 
L 581 3500 
z
" transform="scale(0.015625)"/>
      <path id="DejaVuSans-3a" d="M 750 794 
L 1409 794 
L 1409 0 
L 750 0 
L 750 794 
z
M 750 3309 
L 1409 3309 
L 1409 2516 
L 750 2516 
L 750 3309 
z
" transform="scale(0.015625)"/>
      <path id="DejaVuSans-63" d="M 3122 3366 
L 3122 2828 
Q 2878 2963 2633 3030 
Q 2388 3097 2138 3097 
Q 1578 3097 1268 2742 
Q 959 2388 959 1747 
Q 959 1106 1268 751 
Q 1578 397 2138 397 
Q 2388 397 2633 464 
Q 2878 531 3122 666 
L 3122 134 
Q 2881 22 2623 -34 
Q 2366 -91 2075 -91 
Q 1284 -91 818 406 
Q 353 903 353 1747 
Q 353 2603 823 3093 
Q 1294 3584 2113 3584 
Q 2378 3584 2631 3529 
Q 2884 3475 3122 3366 
z
" transform="scale(0.015625)"/>
     </defs>
     <use xlink:href="#DejaVuSans-412"/>
     <use xlink:href="#DejaVuSans-440" x="68.603516"/>
     <use xlink:href="#DejaVuSans-435" x="132.080078"/>
     <use xlink:href="#DejaVuSans-43c" x="193.603516"/>
     <use xlink:href="#DejaVuSans-44f" x="269.042969"/>
     <use xlink:href="#DejaVuSans-20" x="329.199219"/>
     <use xlink:href="#DejaVuSans-437" x="360.986328"/>
     <use xlink:href="#DejaVuSans-430" x="414.160156"/>
     <use xlink:href="#DejaVuSans-440" x="475.439453"/>
     <use xlink:href="#DejaVuSans-44f" x="538.916016"/>
     <use xlink:href="#DejaVuSans-434" x="599.072266"/>
     <use xlink:href="#DejaVuSans-43a" x="668.212891"/>
     <use xlink:href="#DejaVuSans-438" x="728.613281"/>
     <use xlink:href="#DejaVuSans-3a" x="793.603516"/>
     <use xlink:href="#DejaVuSans-20" x="827.294922"/>
     <use xlink:href="#DejaVuSans-34" x="859.082031"/>
     <use xlink:href="#DejaVuSans-30" x="922.705078"/>
     <use xlink:href="#DejaVuSans-2e" x="986.328125"/>
     <use xlink:href="#DejaVuSans-32" x="1018.115234"/>
     <use xlink:href="#DejaVuSans-20" x="1081.738281"/>
     <use xlink:href="#DejaVuSans-63" x="1113.525391"/>
    </g>
   </g>
   <g id="text_16">
    <!-- Время разрядки: 54.0 c -->
    <g transform="translate(183 288.651926)scale(0.1 -0.1)">
     <use xlink:href="#DejaVuSans-412"/>
     <use xlink:href="#DejaVuSans-440" x="68.603516"/>
     <use xlink:href="#DejaVuSans-435" x="132.080078"/>
     <use xlink:href="#DejaVuSans-43c" x="193.603516"/>
     <use xlink:href="#DejaVuSans-44f" x="269.042969"/>
     <use xlink:href="#DejaVuSans-20" x="329.199219"/>
     <use xlink:href="#DejaVuSans-440" x="360.986328"/>
     <use xlink:href="#DejaVuSans-430" x="424.462891"/>
     <use xlink:href="#DejaVuSans-437" x="485.742188"/>
     <use xlink:href="#DejaVuSans-440" x="538.916016"/>
     <use xlink:href="#DejaVuSans-44f" x="602.392578"/>
     <use xlink:href="#DejaVuSans-434" x="662.548828"/>
     <use xlink:href="#DejaVuSans-43a" x="731.689453"/>
     <use xlink:href="#DejaVuSans-438" x="792.089844"/>
     <use xlink:href="#DejaVuSans-3a" x="857.080078"/>
     <use xlink:href="#DejaVuSans-20" x="890.771484"/>
     <use xlink:href="#DejaVuSans-35" x="922.558594"/>
     <use xlink:href="#DejaVuSans-34" x="986.181641"/>
     <use xlink:href="#DejaVuSans-2e" x="1049.804688"/>
     <use xlink:href="#DejaVuSans-30" x="1081.591797"/>
     <use xlink:href="#DejaVuSans-20" x="1145.214844"/>
     <use xlink:href="#DejaVuSans-63" x="1177.001953"/>
    </g>
   </g>
   <g id="text_17">
    <!-- Процесс заряда и разряда конденсатора в RC-цепи -->
    <g transform="translate(133.26705 54.48)scale(0.1728 -0.1728)">
     <defs>
      <path id="DejaVuSans-41f" d="M 4184 4666 
L 4184 0 
L 3553 0 
L 3553 4134 
L 1259 4134 
L 1259 0 
L 628 0 
L 628 4666 
L 4184 4666 
z
" transform="scale(0.015625)"/>
      <path id="DejaVuSans-43e" d="M 1959 3097 
Q 1497 3097 1228 2736 
Q 959 2375 959 1747 
Q 959 1119 1226 758 
Q 1494 397 1959 397 
Q 2419 397 2687 759 
Q 2956 1122 2956 1747 
Q 2956 2369 2687 2733 
Q 2419 3097 1959 3097 
z
M 1959 3584 
Q 2709 3584 3137 3096 
Q 3566 2609 3566 1747 
Q 3566 888 3137 398 
Q 2709 -91 1959 -91 
Q 1206 -91 779 398 
Q 353 888 353 1747 
Q 353 2609 779 3096 
Q 1206 3584 1959 3584 
z
" transform="scale(0.015625)"/>
      <path id="DejaVuSans-446" d="M 3603 0 
L 581 0 
L 581 3500 
L 1159 3500 
L 1159 459 
L 3025 459 
L 3025 3500 
L 3603 3500 
L 3603 459 
L 4063 459 
L 4063 -884 
L 3603 -884 
L 3603 0 
z
" transform="scale(0.015625)"/>
      <path id="DejaVuSans-442" d="M 188 3500 
L 3541 3500 
L 3541 3041 
L 2147 3041 
L 2147 0 
L 1581 0 
L 1581 3041 
L 188 3041 
L 188 3500 
z
" transform="scale(0.015625)"/>
      <path id="DejaVuSans-432" d="M 1156 1613 
L 1156 459 
L 1975 459 
Q 2369 459 2575 607 
Q 2781 756 2781 1038 
Q 2781 1319 2575 1466 
Q 2369 1613 1975 1613 
L 1156 1613 
z
M 1156 3041 
L 1156 2072 
L 1913 2072 
Q 2238 2072 2444 2201 
Q 2650 2331 2650 2563 
Q 2650 2794 2444 2917 
Q 2238 3041 1913 3041 
L 1156 3041 
z
M 581 3500 
L 1950 3500 
Q 2566 3500 2897 3275 
Q 3228 3050 3228 2634 
Q 3228 2313 3059 2123 
Q 2891 1934 2559 1888 
Q 2956 1813 3175 1575 
Q 3394 1338 3394 981 
Q 3394 513 3033 256 
Q 2672 0 2003 0 
L 581 0 
L 581 3500 
z
" transform="scale(0.015625)"/>
      <path id="DejaVuSans-52" d="M 2841 2188 
Q 3044 2119 3236 1894 
Q 3428 1669 3622 1275 
L 4263 0 
L 3584 0 
L 2988 1197 
Q 2756 1666 2539 1819 
Q 2322 1972 1947 1972 
L 1259 1972 
L 1259 0 
L 628 0 
L 628 4666 
L 2053 4666 
Q 2853 4666 3247 4331 
Q 3641 3997 3641 3322 
Q 3641 2881 3436 2590 
Q 3231 2300 2841 2188 
z
M 1259 4147 
L 1259 2491 
L 2053 2491 
Q 2509 2491 2742 2702 
Q 2975 2913 2975 3322 
Q 2975 3731 2742 3939 
Q 2509 4147 2053 4147 
L 1259 4147 
z
" transform="scale(0.015625)"/>
      <path id="DejaVuSans-43" d="M 4122 4306 
L 4122 3641 
Q 3803 3938 3442 4084 
Q 3081 4231 2675 4231 
Q 1875 4231 1450 3742 
Q 1025 3253 1025 2328 
Q 1025 1406 1450 917 
Q 1875 428 2675 428 
Q 3081 428 3442 575 
Q 3803 722 4122 1019 
L 4122 359 
Q 3791 134 3420 21 
Q 3050 -91 2638 -91 
Q 1578 -91 968 557 
Q 359 1206 359 2328 
Q 359 3453 968 4101 
Q 1578 4750 2638 4750 
Q 3056 4750 3426 4639 
Q 3797 4528 4122 4306 
z
" transform="scale(0.015625)"/>
      <path id="DejaVuSans-2d" d="M 313 2009 
L 1997 2009 
L 1997 1497 
L 313 1497 
L 313 2009 
z
" transform="scale(0.015625)"/>
     </defs>
     <use xlink:href="#DejaVuSans-41f"/>
     <use xlink:href="#DejaVuSans-440" x="75.195312"/>
     <use xlink:href="#DejaVuSans-43e" x="138.671875"/>
     <use xlink:href="#DejaVuSans-446" x="199.853516"/>
     <use xlink:href="#DejaVuSans-435" x="267.919922"/>
     <use xlink:href="#DejaVuSans-441" x="329.443359"/>
     <use xlink:href="#DejaVuSans-441" x="384.423828"/>
     <use xlink:href="#DejaVuSans-20" x="439.404297"/>
     <use xlink:href="#DejaVuSans-437" x="471.191406"/>
     <use xlink:href="#DejaVuSans-430" x="524.365234"/>
     <use xlink:href="#DejaVuSans-440" x="585.644531"/>
     <use xlink:href="#DejaVuSans-44f" x="649.121094"/>
     <use xlink:href="#DejaVuSans-434" x="709.277344"/>
     <use xlink:href="#DejaVuSans-430" x="778.417969"/>
     <use xlink:href="#DejaVuSans-20" x="839.697266"/>
     <use xlink:href="#DejaVuSans-438" x="871.484375"/>
     <use xlink:href="#DejaVuSans-20" x="936.474609"/>
     <use xlink:href="#DejaVuSans-440" x="968.261719"/>
     <use xlink:href="#DejaVuSans-430" x="1031.738281"/>
     <use xlink:href="#DejaVuSans-437" x="1093.017578"/>
     <use xlink:href="#DejaVuSans-440" x="1146.191406"/>
     <use xlink:href="#DejaVuSans-44f" x="1209.667969"/>
     <use xlink:href="#DejaVuSans-434" x="1269.824219"/>
     <use xlink:href="#DejaVuSans-430" x="1338.964844"/>
     <use xlink:href="#DejaVuSans-20" x="1400.244141"/>
     <use xlink:href="#DejaVuSans-43a" x="1432.03125"/>
     <use xlink:href="#DejaVuSans-43e" x="1492.431641"/>
     <use xlink:href="#DejaVuSans-43d" x="1553.613281"/>
     <use xlink:href="#DejaVuSans-434" x="1618.994141"/>
     <use xlink:href="#DejaVuSans-435" x="1688.134766"/>
     <use xlink:href="#DejaVuSans-43d" x="1749.658203"/>
     <use xlink:href="#DejaVuSans-441" x="1815.039062"/>
     <use xlink:href="#DejaVuSans-430" x="1870.019531"/>
     <use xlink:href="#DejaVuSans-442" x="1931.298828"/>
     <use xlink:href="#DejaVuSans-43e" x="1989.550781"/>
     <use xlink:href="#DejaVuSans-440" x="2050.732422"/>
     <use xlink:href="#DejaVuSans-430" x="2114.208984"/>
     <use xlink:href="#DejaVuSans-20" x="2175.488281"/>
     <use xlink:href="#DejaVuSans-432" x="2207.275391"/>
     <use xlink:href="#DejaVuSans-20" x="2266.210938"/>
     <use xlink:href="#DejaVuSans-52" x="2297.998047"/>
     <use xlink:href="#DejaVuSans-43" x="2362.480469"/>
     <use xlink:href="#DejaVuSans-2d" x="2432.304688"/>
     <use xlink:href="#DejaVuSans-446" x="2468.388672"/>
     <use xlink:href="#DejaVuSans-435" x="2536.455078"/>
     <use xlink:href="#DejaVuSans-43f" x="2597.978516"/>
     <use xlink:href="#DejaVuSans-438" x="2663.359375"/>
    </g>
   </g>
   <g id="legend_1">
    <g id="patch_7">
     <path d="M 589.9 83.158125 
L 641 83.158125 
Q 643 83.158125 643 81.158125 
L 643 67.48 
Q 643 65.48 641 65.48 
L 589.9 65.48 
Q 587.9 65.48 587.9 67.48 
L 587.9 81.158125 
Q 587.9 83.158125 589.9 83.158125 
z
" style="fill: #ffffff; opacity: 0.8; stroke: #cccccc; stroke-linejoin: miter"/>
    </g>
    <g id="line2d_110">
     <path d="M 591.9 73.578438 
L 601.9 73.578438 
L 611.9 73.578438 
" style="fill: none; stroke: #1f77b4; stroke-width: 2; stroke-linecap: square"/>
     <g>
      <use xlink:href="#m4b23a76724" x="601.9" y="73.578438" style="fill: #1f77b4; stroke: #1f77b4"/>
     </g>
    </g>
    <g id="text_18">
     <!-- $U(t)$ -->
     <g transform="translate(619.9 77.078438)scale(0.1 -0.1)">
      <defs>
       <path id="DejaVuSans-Oblique-55" d="M 991 4666 
L 1625 4666 
L 1075 1831 
Q 1041 1641 1027 1517 
Q 1013 1394 1013 1300 
Q 1013 869 1253 645 
Q 1494 422 1959 422 
Q 2563 422 2898 753 
Q 3234 1084 3378 1831 
L 3928 4666 
L 4563 4666 
L 4000 1753 
Q 3816 809 3300 359 
Q 2784 -91 1888 -91 
Q 1188 -91 780 261 
Q 372 613 372 1216 
Q 372 1325 387 1461 
Q 403 1597 434 1753 
L 991 4666 
z
" transform="scale(0.015625)"/>
       <path id="DejaVuSans-28" d="M 1984 4856 
Q 1566 4138 1362 3434 
Q 1159 2731 1159 2009 
Q 1159 1288 1364 580 
Q 1569 -128 1984 -844 
L 1484 -844 
Q 1016 -109 783 600 
Q 550 1309 550 2009 
Q 550 2706 781 3412 
Q 1013 4119 1484 4856 
L 1984 4856 
z
" transform="scale(0.015625)"/>
       <path id="DejaVuSans-Oblique-74" d="M 2706 3500 
L 2619 3053 
L 1472 3053 
L 1100 1153 
Q 1081 1047 1072 975 
Q 1063 903 1063 863 
Q 1063 663 1183 572 
Q 1303 481 1569 481 
L 2150 481 
L 2053 0 
L 1503 0 
Q 991 0 739 200 
Q 488 400 488 806 
Q 488 878 497 964 
Q 506 1050 525 1153 
L 897 3053 
L 409 3053 
L 500 3500 
L 978 3500 
L 1172 4494 
L 1747 4494 
L 1556 3500 
L 2706 3500 
z
" transform="scale(0.015625)"/>
       <path id="DejaVuSans-29" d="M 513 4856 
L 1013 4856 
Q 1481 4119 1714 3412 
Q 1947 2706 1947 2009 
Q 1947 1309 1714 600 
Q 1481 -109 1013 -844 
L 513 -844 
Q 928 -128 1133 580 
Q 1338 1288 1338 2009 
Q 1338 2731 1133 3434 
Q 928 4138 513 4856 
z
" transform="scale(0.015625)"/>
      </defs>
      <use xlink:href="#DejaVuSans-Oblique-55" transform="translate(0 0.125)"/>
      <use xlink:href="#DejaVuSans-28" transform="translate(73.193359 0.125)"/>
      <use xlink:href="#DejaVuSans-Oblique-74" transform="translate(112.207031 0.125)"/>
      <use xlink:href="#DejaVuSans-29" transform="translate(151.416016 0.125)"/>
     </g>
    </g>
   </g>
  </g>
 </g>
 <defs>
  <clipPath id="pc6f7da6446">
   <rect x="90" y="60.48" width="558" height="388.08"/>
  </clipPath>
 </defs>
</svg>
